<?xml version="1.0" encoding="UTF-8" standalone="no"?>
<svg
   xmlns:dc="http://purl.org/dc/elements/1.1/"
   xmlns:cc="http://creativecommons.org/ns#"
   xmlns:rdf="http://www.w3.org/1999/02/22-rdf-syntax-ns#"
   xmlns:svg="http://www.w3.org/2000/svg"
   xmlns="http://www.w3.org/2000/svg"
   viewBox="0 0 788 101.33333"
   height="101.33333"
   width="788"
   xml:space="preserve"
   id="svg2"
   version="1.1"><metadata
     id="metadata8"><rdf:RDF><cc:Work
         rdf:about=""><dc:format>image/svg+xml</dc:format><dc:type
           rdf:resource="http://purl.org/dc/dcmitype/StillImage" /></cc:Work></rdf:RDF></metadata><defs
     id="defs6" /><g
     transform="matrix(1.3333333,0,0,-1.3333333,0,101.33333)"
     id="g10"><g
       transform="scale(0.1)"
       id="g12"><path
         id="path14"
         style="fill:#ffffff;fill-opacity:1;fill-rule:evenodd;stroke:none"
         d="m 452.66,758.32 c 68.59,4.379 157.379,-5.98 225.891,-30.621 C 723.012,711.602 824.84,673.711 825.469,618.051 826.02,572.66 770.859,542.5 713.629,547.891 677.852,551.25 649.648,575 617.148,589.531 441.328,668.238 197.66,578.59 196.09,383.398 c -0.391,-28.007 5.59,-55.777 17.5,-81.128 37.351,-86.329 135.039,-156.532 269.73,-155.711 43.75,0.082 86.989,9.031 127.192,26.25 32.847,13.832 63.508,42.582 105.269,46.062 51.25,4.328 109.649,-22.23 109.649,-70.199 0,-39.063 -40.942,-58.2032 -72.34,-74.5704 C 640.512,15.5898 512.301,-5.82031 386.84,12.8906 229.449,35.8203 96.7617,120.621 33.75,245.352 -37.1484,385.781 20.8984,532.809 99.3398,613.75 138.16,653.711 191.172,687.699 248.48,712.461 308.711,738.16 378.32,753.52 452.66,758.32 Z" /><path
         id="path16"
         style="fill:#ffffff;fill-opacity:1;fill-rule:evenodd;stroke:none"
         d="m 998.281,758.32 c 39.339,0.782 82.269,-19.922 94.299,-50.468 11.99,-30.551 4.37,-89.454 4.37,-127.231 v -263.16 c 0,-71.801 -10.66,-141.051 41.64,-164.449 43.13,-19.223 158.25,-6.563 219.3,-6.563 h 111.84 c 35.86,0 73.9,5.742 105.27,-6.57 25.66,-10.039 52.07,-32.379 52.46,-61.2071 C 1628.75,16.25 1551.8,6.32813 1487.15,6.32813 h -425.27 c -72.232,0 -141.021,3.16015 -157.931,54.80077 -11.609,35.6328 -2.187,113.0901 -2.187,162.3121 V 547.73 c 0,48.829 -6.684,126.801 4.367,157.93 12.109,33.789 51.101,51.801 92.152,52.66 z" /><path
         id="path18"
         style="fill:#ffffff;fill-opacity:1;fill-rule:evenodd;stroke:none"
         d="m 2111.52,758.32 c 206.57,13.09 401.64,-88.281 475.9,-234.648 17.5,-34.492 45.86,-104.223 30.63,-155.703 -23.28,-79.059 -207.93,-54.809 -320.24,-54.809 -42.81,0 -89.33,-3.98 -116.25,6.57 -23.98,9.411 -52.18,35.309 -52.46,61.168 -0.55,35.864 30.31,54.84 52.46,63.633 60.78,23.867 179.85,-25.191 179.85,63.59 0,40.707 -45.39,62.078 -74.61,76.801 -36.02,18.707 -75.47,29.957 -115.98,33.008 -138.79,10.781 -250.04,-55.59 -293.87,-144.77 -32.07,-65.23 -21.56,-148.43 10.98,-199.57 40.94,-64.41 114.92,-109.641 214.92,-122.809 57.58,-7.582 127.5,-15.621 129.34,-72.3396 2.93,-89.7695 -141.14,-75.47265 -217.11,-59.2226 -146.21,31.25 -268.32,114.7302 -324.57,228.0822 -16.96,33.558 -27.35,70.039 -30.59,107.469 -15.27,196.011 130.55,311.91 271.92,366.25 55.11,21.011 113.32,33 179.68,37.3 z" /><path
         id="path20"
         style="fill:#ffffff;fill-opacity:1;fill-rule:evenodd;stroke:none"
         d="m 3150.98,758.32 c 216.79,13.95 403.79,-92.621 475.7,-234.879 17.85,-34.961 45.74,-104.531 30.62,-155.671 -21.01,-71.321 -136.32,-54.84 -241.25,-54.84 -69.96,0 -153,-9.918 -195.15,6.558 -24.96,9.852 -52.46,37.461 -52.46,61.211 -0.59,35.199 33.04,57.539 59.18,65.59 23.2,7.34 75.19,0.82 114.02,4.371 37.77,3.442 59.18,21.84 59.18,56.84 0,43.398 -55.62,69.922 -94.3,85.512 C 3152.3,655 2973.24,590.699 2916.17,474.57 c -23.63,-48.09 -27.3,-119.179 -6.56,-171.09 21.33,-53.359 86.25,-113.679 155.66,-138.128 83.09,-29.301 204.07,-6.403 206.14,-87.7739 0.78,-28.5586 -25.24,-53.2383 -50.43,-63.5976 -54.22,-22.26175 -137.54,-3.0391 -192.97,10.9804 -159.65,40.3907 -315.67,158.1601 -328.95,328.9491 -5.51,70.891 8.17,120.192 32.85,168.86 33.95,66.878 92.86,122.07 162.31,162.308 70.35,41.481 158.44,66.871 256.76,73.242 z" /><path
         id="path22"
         style="fill:#ffffff;fill-opacity:1;fill-rule:evenodd;stroke:none"
         d="m 3855,756.129 c 10.23,1.211 38.2,0.941 54.8,-4.367 53.17,-17.071 100.94,-72.071 144.77,-107.461 116.84,-94.379 227.34,-179.961 348.71,-276.332 24.18,-19.219 46.25,-48.09 76.76,-48.09 80.94,0 59.22,125.672 59.22,208.32 0,58.25 -11.06,135 2.19,175.473 24.64,75.277 171.4,63.828 190.78,-2.192 12.46,-42.421 2.18,-113.16 2.18,-160.109 v -324.57 c 0,-47.071 10.36,-118.8713 -2.18,-157.8908 C 4720.16,21.4492 4658.24,-8.05078 4600.63,8.48047 4552.85,22.1914 4493.55,85.7813 4455.86,115.941 4339.88,208.871 4224.18,299.57 4105,394.449 c -22.19,17.5 -51.25,48.563 -76.8,48.129 -79.88,-0.859 -59.18,-115.387 -59.18,-208.398 0,-58.481 8.75,-133.09 -4.37,-173.2386 C 3943.44,-3.82813 3807.77,-18.4805 3778.2,56.5586 3765.12,90 3773.87,164.691 3773.87,216.68 v 328.91 c 0,49.531 -7.03,123.16 4.33,157.89 11.14,33.821 43.56,48.711 76.8,52.649 z" /><path
         id="path24"
         style="fill:#ffffff;fill-opacity:1;fill-rule:evenodd;stroke:none"
         d="m 5395.12,756.129 c 66.56,3.641 133.24,-3.75 197.38,-21.867 44.3,-12.742 131.48,-33.364 133.79,-85.512 2.26,-50.859 -60,-76.559 -109.65,-74.609 -29.73,1.211 -56.29,16.949 -85.51,26.25 -152.77,49.058 -318.9,-18.481 -370.62,-138.161 -22.27,-51.449 -18.75,-126.179 4.37,-173.25 54.89,-111.64 228.91,-181.832 388.13,-120.621 41.76,16.051 96.52,45.43 96.52,87.692 0,88.168 -118.4,39.34 -179.84,63.597 -23.6,9.301 -52.11,29.332 -52.46,61.211 -0.35,31.871 27.73,51.84 50.47,61.211 34.21,14.45 79.25,8.75 118.43,8.75 104.5,0 296.33,26.25 320.2,-54.8 8.01,-27.231 -3.24,-74.34 -8.75,-94.34 -23.05,-83.051 -74.57,-145.27 -131.6,-188.59 C 5682.93,49.8789 5591.64,9.87891 5450.2,3.44141 5323.71,-2.30078 5203.55,36.9883 5116.88,95.5508 5037.77,148.98 4957.38,231.949 4947.97,352.148 c -10.86,139.922 58.63,227.731 133.79,289.454 71.17,59.218 189.02,106.519 313.36,114.527 z" /></g></g></svg>