<svg xmlns="http://www.w3.org/2000/svg" width="26.019" height="20" viewBox="0 0 26.019 20"><defs><style>.a{fill:#7c8ca5;}</style></defs><g transform="translate(0 0)"><path class="a" d="M23.846,65.126H21.2V61.389a2.175,2.175,0,0,0-2.172-2.172H2.172A2.175,2.175,0,0,0,0,61.389v9.746a2.175,2.175,0,0,0,2.172,2.172H4.82v3.737a2.175,2.175,0,0,0,2.172,2.172H23.846a2.175,2.175,0,0,0,2.172-2.172V67.3A2.175,2.175,0,0,0,23.846,65.126ZM1.241,61.389a.932.932,0,0,1,.931-.931H19.027a.932.932,0,0,1,.931.931v.866H1.241ZM4.82,67.3v4.768H2.172a.932.932,0,0,1-.931-.931V66.371H5.028A2.158,2.158,0,0,0,4.82,67.3ZM1.241,65.13V63.5H19.958v1.629H6.992c-.042,0-.084,0-.125,0ZM23.846,77.976H6.992a.932.932,0,0,1-.931-.931V67.3a.932.932,0,0,1,.855-.927H20.578a.618.618,0,0,0,.068,0h3.2a.932.932,0,0,1,.931.931v9.746h0A.932.932,0,0,1,23.846,77.976Z" transform="translate(0 -59.217)"/></g><g transform="translate(10.558 9.963)"><path class="a" d="M214.491,255.265a2.977,2.977,0,0,0-1.867.657,2.992,2.992,0,1,0,0,4.67,2.991,2.991,0,1,0,1.867-5.327Zm-2.656,4.367a1.751,1.751,0,1,1,0-2.75,2.981,2.981,0,0,0,0,2.75Zm2.656.375a1.75,1.75,0,1,1,1.75-1.75A1.752,1.752,0,0,1,214.491,260.008Z" transform="translate(-207.76 -255.265)"/></g></svg>
